<?xml version="1.0" encoding="UTF-8" standalone="no"?>
<svg
   xmlns:dc="http://purl.org/dc/elements/1.1/"
   xmlns:cc="http://creativecommons.org/ns#"
   xmlns:rdf="http://www.w3.org/1999/02/22-rdf-syntax-ns#"
   xmlns:svg="http://www.w3.org/2000/svg"
   xmlns="http://www.w3.org/2000/svg"
   xmlns:sodipodi="http://sodipodi.sourceforge.net/DTD/sodipodi-0.dtd"
   xmlns:inkscape="http://www.inkscape.org/namespaces/inkscape"
   width="17.656342"
   height="17.6574"
   viewBox="0 0 17.656341 17.6574"
   version="1.1"
   id="svg872"
   sodipodi:docname="Vector(5).svg"
   style="fill:none"
   inkscape:version="0.92.5 (2060ec1f9f, 2020-04-08)">
  <metadata
     id="metadata878">
    <rdf:RDF>
      <cc:Work
         rdf:about="">
        <dc:format>image/svg+xml</dc:format>
        <dc:type
           rdf:resource="http://purl.org/dc/dcmitype/StillImage" />
      </cc:Work>
    </rdf:RDF>
  </metadata>
  <defs
     id="defs876" />
  <sodipodi:namedview
     pagecolor="#ffffff"
     bordercolor="#666666"
     borderopacity="1"
     objecttolerance="10"
     gridtolerance="10"
     guidetolerance="10"
     inkscape:pageopacity="0"
     inkscape:pageshadow="2"
     inkscape:window-width="2928"
     inkscape:window-height="1600"
     id="namedview874"
     showgrid="false"
     inkscape:zoom="74.944444"
     inkscape:cx="8.8272795"
     inkscape:cy="9.1911288"
     inkscape:window-x="144"
     inkscape:window-y="54"
     inkscape:window-maximized="1"
     inkscape:current-layer="svg872" />
  <path
     d="M 15.4286,1.28571 C 15.4282,0.944826 15.2927,0.617997 15.0516,0.376953 14.8106,0.135908 14.4838,3.404e-4 14.1429,0 H 1.28572 C 0.94483099,3.404e-4 0.61800199,0.135908 0.37695699,0.376953 0.13591299,0.617997 3.4479256e-4,0.944826 4.39256e-6,1.28571 V 9.64286 C -0.00142561,10.9249 0.34632399,12.1832 1.00593,13.2826 1.66554,14.382 2.6121,15.281 3.744,15.8831 l 3.32743,1.7743 V 16.2 L 4.34958,14.7484 C 3.42344,14.2558 2.64893,13.5203 2.10916,12.6208 1.56938,11.7213 1.28472,10.6919 1.28572,9.64286 V 1.28571 H 14.1429 v 5.78572 h 1.2857 z"
     id="path870"
     inkscape:connector-curvature="0"
     style="fill:#000000" />
  <g
     style="fill:none"
     id="g1007"
     transform="translate(3.1979618,3.1503264)">
    <path
       id="path996"
       d="M 0.857422,0.143066 H 8.57171 V 1.42878 H 0.857422 Z"
       inkscape:connector-curvature="0"
       style="fill:#000000" />
  </g>
  <g
     style="fill:none"
     id="g1068"
     transform="translate(3.2937499,7.3097022)">
    <path
       id="path1057"
       d="M 0.857422,0 H 7.28599 V 1.28571 H 0.857422 Z"
       inkscape:connector-curvature="0"
       style="fill:#000000" />
  </g>
  <g
     style="fill:none"
     id="g1129"
     transform="translate(8.6564822,7.8558891)">
    <path
       id="path1118"
       d="M 8.81164,2.11679 6.88307,0.188219 C 6.76252,0.0677022 6.59903,0 6.42857,0 6.25811,0 6.09462,0.0677022 5.97407,0.188219 L 0,6.16229 V 8.99986 H 2.83757 L 8.81164,3.02579 c 0.12052,-0.12055 0.18822,-0.28404 0.18822,-0.4545 0,-0.17046 -0.0677,-0.33395 -0.18822,-0.4545 z M 2.30529,7.71415 H 1.28571 V 6.69458 L 4.5,3.48029 5.51957,4.49986 Z M 6.42857,3.59086 5.409,2.57129 6.42857,1.55172 7.44814,2.57129 Z"
       inkscape:connector-curvature="0"
       style="fill:#000000" />
  </g>
</svg>
