<svg width="17" height="18" viewBox="0 0 17 18" fill="none" xmlns="http://www.w3.org/2000/svg">
<path d="M0.0473313 16.3441C-0.0059466 16.5079 -0.0144378 16.6842 0.0228314 16.8528C0.0601007 17.0215 0.141621 17.1756 0.258044 17.2976L0.2611 17.3008C0.342112 17.387 0.438464 17.4554 0.544612 17.5021C0.650761 17.5489 0.764611 17.573 0.879613 17.5731C0.976378 17.573 1.07248 17.5562 1.16408 17.5232C4.44291 16.3438 7.42262 14.3874 9.87496 11.804L15.7207 5.63026C16.0116 5.32462 16.2426 4.96136 16.4004 4.5613C16.5581 4.16124 16.6396 3.73224 16.6401 3.29887C16.6407 2.8655 16.5602 2.43627 16.4034 2.03578C16.2466 1.63529 16.0166 1.27141 15.7264 0.964969C15.4362 0.65853 15.0917 0.415559 14.7125 0.249974C14.3332 0.0843886 13.9268 -0.000557007 13.5164 2.74848e-06C13.1061 0.000562504 12.6999 0.0866166 12.321 0.253236C11.9422 0.419855 11.5982 0.663765 11.3088 0.970995L10.974 1.32459L10.2438 0.553494C9.91191 0.20297 9.46173 0.00605013 8.99232 0.00605013C8.52291 0.00605013 8.07272 0.20297 7.74078 0.553494L3.03247 5.52582L3.82707 6.36502L8.53542 1.39269C8.6566 1.26474 8.82094 1.19286 8.9923 1.19286C9.16366 1.19286 9.328 1.26474 9.44918 1.39269L10.1794 2.16379L5.46291 7.14472C3.01666 9.73458 1.16417 12.8814 0.0473313 16.3441ZM12.1036 1.81019C12.289 1.61446 12.509 1.4592 12.7511 1.35327C12.9933 1.24735 13.2528 1.19283 13.5149 1.19283C13.777 1.19283 14.0366 1.24735 14.2787 1.35327C14.5209 1.4592 14.7409 1.61446 14.9262 1.81019C15.1116 2.00592 15.2586 2.23828 15.3589 2.49401C15.4592 2.74974 15.5108 3.02383 15.5108 3.30063C15.5108 3.57743 15.4592 3.85152 15.3589 4.10725C15.2586 4.36298 15.1116 4.59534 14.9262 4.79107L11.7834 8.1102L8.96078 5.12931L12.1036 1.81019ZM8.16597 5.96851L10.9885 8.94935L9.08011 10.9648C6.87057 13.2922 4.20926 15.0858 1.27976 16.2217C2.35539 13.1279 4.0537 10.3174 6.25754 7.98395L8.16597 5.96851Z" fill="black"/>
</svg>
