<?xml version="1.0" encoding="UTF-8" standalone="no"?>
<svg
   xmlns:dc="http://purl.org/dc/elements/1.1/"
   xmlns:cc="http://creativecommons.org/ns#"
   xmlns:rdf="http://www.w3.org/1999/02/22-rdf-syntax-ns#"
   xmlns:svg="http://www.w3.org/2000/svg"
   xmlns="http://www.w3.org/2000/svg"
   xmlns:sodipodi="http://sodipodi.sourceforge.net/DTD/sodipodi-0.dtd"
   xmlns:inkscape="http://www.inkscape.org/namespaces/inkscape"
   width="26"
   height="21"
   viewBox="0 0 26 21"
   fill="none"
   version="1.1"
   id="svg865"
   sodipodi:docname="tick-symbol.svg"
   inkscape:version="0.92.5 (2060ec1f9f, 2020-04-08)">
  <metadata
     id="metadata871">
    <rdf:RDF>
      <cc:Work
         rdf:about="">
        <dc:format>image/svg+xml</dc:format>
        <dc:type
           rdf:resource="http://purl.org/dc/dcmitype/StillImage" />
        <dc:title />
      </cc:Work>
    </rdf:RDF>
  </metadata>
  <defs
     id="defs869" />
  <sodipodi:namedview
     pagecolor="#ffffff"
     bordercolor="#666666"
     borderopacity="1"
     objecttolerance="10"
     gridtolerance="10"
     guidetolerance="10"
     inkscape:pageopacity="0"
     inkscape:pageshadow="2"
     inkscape:window-width="2928"
     inkscape:window-height="1600"
     id="namedview867"
     showgrid="false"
     inkscape:zoom="32.119048"
     inkscape:cx="14.447739"
     inkscape:cy="3.0277984"
     inkscape:window-x="144"
     inkscape:window-y="54"
     inkscape:window-maximized="1"
     inkscape:current-layer="svg865" />
  <path
     d="M 23.704774,2.1064458 13.190961,12.639367 10.036818,9.482653"
     id="path863"
     inkscape:connector-curvature="0"
     style="stroke:#ffbd06;stroke-width:2.54984117;stroke-linecap:round;stroke-linejoin:round" />
  <g
     style="fill:none"
     id="g993"
     transform="matrix(0.56131197,0,0,0.54090839,2.7959426,0.36634449)">
    <path
       id="path982"
       d="m 35,16.9914 v 1.518 c -0.002,3.5581 -1.1542,7.0203 -3.2846,9.87 -2.1304,2.8498 -5.125,4.9346 -8.5371,5.9435 -3.412,1.0088 -7.0588,0.8877 -10.3964,-0.3454 C 9.44427,32.7444 6.59468,30.4655 4.65808,27.4806 2.72149,24.4957 1.80166,20.9647 2.03577,17.4144 2.26988,13.864 3.64539,10.4844 5.95716,7.77961 8.26893,5.07485 11.3931,3.18982 14.8637,2.40569 18.3343,1.62155 21.9654,1.9803 25.2155,3.42844"
       inkscape:connector-curvature="0"
       style="stroke:#ffbd06;stroke-width:4;stroke-linecap:round;stroke-linejoin:round" />
  </g>
</svg>
