<?xml version="1.0" encoding="UTF-8" standalone="no"?>
<svg
   xmlns:dc="http://purl.org/dc/elements/1.1/"
   xmlns:cc="http://creativecommons.org/ns#"
   xmlns:rdf="http://www.w3.org/1999/02/22-rdf-syntax-ns#"
   xmlns:svg="http://www.w3.org/2000/svg"
   xmlns="http://www.w3.org/2000/svg"
   xmlns:sodipodi="http://sodipodi.sourceforge.net/DTD/sodipodi-0.dtd"
   xmlns:inkscape="http://www.inkscape.org/namespaces/inkscape"
   width="16"
   height="16.8972"
   viewBox="0 0 16 16.8972"
   version="1.1"
   id="svg872"
   sodipodi:docname="user.svg"
   style="fill:none"
   inkscape:version="0.92.5 (2060ec1f9f, 2020-04-08)">
  <metadata
     id="metadata878">
    <rdf:RDF>
      <cc:Work
         rdf:about="">
        <dc:format>image/svg+xml</dc:format>
        <dc:type
           rdf:resource="http://purl.org/dc/dcmitype/StillImage" />
      </cc:Work>
    </rdf:RDF>
  </metadata>
  <defs
     id="defs876" />
  <sodipodi:namedview
     pagecolor="#ffffff"
     bordercolor="#666666"
     borderopacity="1"
     objecttolerance="10"
     gridtolerance="10"
     guidetolerance="10"
     inkscape:pageopacity="0"
     inkscape:pageshadow="2"
     inkscape:window-width="2928"
     inkscape:window-height="1600"
     id="namedview874"
     showgrid="false"
     inkscape:zoom="79.352941"
     inkscape:cx="8"
     inkscape:cy="10.413509"
     inkscape:window-x="144"
     inkscape:window-y="54"
     inkscape:window-maximized="1"
     inkscape:current-layer="svg872" />
  <path
     d="M 16,8.44015 C 16,3.78075 12.416,0 8,0 3.584,0 0,3.78075 0,8.44015 c 0,2.56625 1.104,4.87905 2.832,6.43145 0.016,0.0169 0.032,0.0169 0.032,0.0338 0.144,0.1183 0.288,0.2366 0.448,0.3549 0.08,0.0507 0.144,0.1172 0.224,0.1848 1.32207,0.9466 2.88271,1.4525 4.48,1.4521 1.59729,4e-4 3.1579,-0.5055 4.48,-1.4521 0.08,-0.0507 0.144,-0.1172 0.224,-0.169 0.144,-0.1172 0.304,-0.2355 0.448,-0.3538 C 13.184,14.9054 13.2,14.9054 13.2,14.8885 14.896,13.3182 16,11.0064 16,8.44015 Z M 8,15.8337 C 6.496,15.8337 5.12,15.3268 3.984,14.483 4,14.3478 4.032,14.2137 4.064,14.0785 4.15934,13.7122 4.29917,13.3604 4.48,13.032 4.656,12.7109 4.864,12.4237 5.12,12.1702 5.36,11.9167 5.648,11.6812 5.936,11.4954 6.24,11.3095 6.56,11.1743 6.912,11.0729 7.26674,10.972 7.6326,10.9212 8,10.9219 c 1.09065,-0.0081 2.1412,0.4337 2.928,1.2314 0.368,0.3886 0.656,0.8449 0.864,1.3676 0.112,0.3042 0.192,0.6252 0.24,0.9621 C 10.8512,15.3597 9.44343,15.8313 8,15.8337 Z M 5.552,8.01877 C 5.41102,7.67789 5.34013,7.30931 5.344,6.93735 5.344,6.56667 5.408,6.19493 5.552,5.85699 5.696,5.51905 5.888,5.21595 6.128,4.96249 6.368,4.70904 6.656,4.50733 6.976,4.35525 7.296,4.20318 7.648,4.13559 8,4.13559 c 0.368,0 0.704,0.06759 1.024,0.21966 0.32,0.15208 0.608,0.35484 0.848,0.60724 0.24,0.25346 0.432,0.55761 0.576,0.8945 0.144,0.33794 0.208,0.70968 0.208,1.08036 0,0.38864 -0.064,0.74348 -0.208,1.08037 C 10.309,8.35066 10.1138,8.65412 9.872,8.91327 9.62653,9.1683 9.33919,9.37406 9.024,9.52051 8.36283,9.80746 7.62117,9.80746 6.96,9.52051 6.64481,9.37406 6.35747,9.1683 6.112,8.91327 5.86981,8.6579 5.67929,8.35322 5.552,8.01772 Z m 7.424,5.60353 c 0,-0.0338 -0.016,-0.0507 -0.016,-0.0845 -0.1574,-0.5286 -0.3893,-1.0292 -0.688,-1.4848 -0.299,-0.459 -0.6664,-0.8638 -1.088,-1.1987 -0.322,-0.2558 -0.671,-0.4712 -1.04,-0.6421 0.1679,-0.1169 0.3234,-0.25252 0.464,-0.40443 C 10.8465,9.55906 11.056,9.2811 11.232,8.9798 11.5864,8.36497 11.7694,7.65706 11.76,6.93735 11.7649,6.40458 11.667,5.87634 11.472,5.38492 11.2795,4.91142 11.0025,4.48151 10.656,4.11869 10.31,3.75966 9.90288,3.473 9.456,3.27383 8.98991,3.06831 8.48906,2.96519 7.984,2.97074 7.47887,2.96552 6.97802,3.06901 6.512,3.27489 6.06125,3.47363 5.65311,3.76637 5.312,4.13559 4.97204,4.50055 4.70059,4.9302 4.512,5.40182 4.31705,5.89324 4.21905,6.42148 4.224,6.95425 c 0,0.37174 0.048,0.72658 0.144,1.06347 0.096,0.35484 0.224,0.67589 0.4,0.97898 0.16,0.30415 0.384,0.57451 0.624,0.82796 0.144,0.15208 0.304,0.28624 0.48,0.40444 -0.37016,0.1754 -0.71928,0.3966 -1.04,0.659 -0.416,0.338 -0.784,0.7424 -1.088,1.1818 C 3.44226,12.5236 3.21008,13.0247 3.056,13.5547 3.04,13.5885 3.04,13.6223 3.04,13.6392 1.776,12.2885 0.992,10.4657 0.992,8.44015 0.992,4.37215 4.144,1.04657 8,1.04657 c 3.856,0 7.008,3.32558 7.008,7.39358 -0.0021,1.94315 -0.7327,3.80635 -2.032,5.18215 z"
     id="path870"
     inkscape:connector-curvature="0"
     style="fill:#000000" />
</svg>
